<svg width="32" height="32" viewBox="0 0 294 304" fill="none" xmlns="http://www.w3.org/2000/svg">
    <path
        d="M273.641 148.432C273.641 210.056 226.513 260.011 168.378 260.011C110.243 260.011 63.1147 210.056 63.1147 148.432C63.1147 86.8091 110.243 36.8535 168.378 36.8535C226.513 36.8535 273.641 86.8091 273.641 148.432Z"
        fill="#FEF7FF" />
    <ellipse cx="228.878" cy="120.22" rx="18.5" ry="19.6483" fill="#1E1E1E" />
    <g filter="url(#filter0_d_11_6)">
        <path d="M185.378 25.0009L29.3755 149.744C28.8682 150.15 28.8762 150.924 29.3917 151.319L185.378 270.856"
            stroke="#1E1E1E" stroke-width="50" stroke-linecap="round" />
    </g>
    <path d="M181.274 173.951C199.726 173.568 210.072 173.353 228.524 172.97" stroke="#1E1E1E" stroke-width="40"
        stroke-linecap="round" />
    <ellipse cx="180.878" cy="120.22" rx="18.5" ry="19.6483" fill="#1E1E1E" />
    <defs>
        <filter id="filter0_d_11_6" x="0" y="0" width="214.379" height="303.858" filterUnits="userSpaceOnUse"
            color-interpolation-filters="sRGB">
            <feFlood flood-opacity="0" result="BackgroundImageFix" />
            <feColorMatrix in="SourceAlpha" type="matrix" values="0 0 0 0 0 0 0 0 0 0 0 0 0 0 0 0 0 0 127 0"
                result="hardAlpha" />
            <feOffset dy="4" />
            <feGaussianBlur stdDeviation="2" />
            <feComposite in2="hardAlpha" operator="out" />
            <feColorMatrix type="matrix" values="0 0 0 0 0 0 0 0 0 0 0 0 0 0 0 0 0 0 0.25 0" />
            <feBlend mode="normal" in2="BackgroundImageFix" result="effect1_dropShadow_11_6" />
            <feBlend mode="normal" in="SourceGraphic" in2="effect1_dropShadow_11_6" result="shape" />
        </filter>
    </defs>
</svg>